<?xml version="1.0" encoding="utf-8"?>
<!-- Generator: Adobe Illustrator 19.1.0, SVG Export Plug-In . SVG Version: 6.00 Build 0)  -->
<!DOCTYPE svg PUBLIC "-//W3C//DTD SVG 1.1//EN" "http://www.w3.org/Graphics/SVG/1.1/DTD/svg11.dtd">
<svg version="1.1" id="Layer_1" xmlns="http://www.w3.org/2000/svg" xmlns:xlink="http://www.w3.org/1999/xlink" x="0px" y="0px"
	 viewBox="0 0 150 40" enable-background="new 0 0 150 40" xml:space="preserve">
<path fill="#FFFFFF" d="M9.1,2.2c0.7,0,1.4,0.3,1.9,0.8c0,0,4.9,5.4,6.1,6.7c1.2-1.3,6.1-6.8,6.1-6.8c0.6-0.6,1.3-0.7,1.9-0.7
	c1.3,0.1,2.3,0.9,2.3,2v17.6h-4.7c0,0,0-10.1,0-13.8c-1.6,1.8-3.7,4.1-3.7,4.1c-0.5,0.6-1.1,0.8-1.9,0.8c-0.8,0-1.4-0.2-1.9-0.8
	c0,0-2.1-2.3-3.7-4.1c0,3.7,0,13.7,0,13.7H6.8V4.3C6.8,3.2,7.8,2.2,9.1,2.2L9.1,2.2z M67.9,2.2c4,0,6.3,2,6.3,4.9
	c0,1.4-0.4,2.4-1.3,3.4c1.8,1.4,2.6,3,2.6,5c0,0.2,0,0.4,0,0.5c-0.2,3.4-2.9,5.8-7.7,5.8H60c-0.5,0-1.1,0-1.6-0.4
	c-0.7-0.5-0.7-1.2-0.7-1.6l0-17.6L67.9,2.2L67.9,2.2z M65.5,10.1h1.4c1.9,0,2.7-1.6,2.7-2.9c0-1.4-0.8-2.9-2.7-2.9h-4.6v15.7h4.6
	c2.6,0,4-2,4-3.9c0-1.9-1.3-3.9-4-3.9h-2.2L65.5,10.1L65.5,10.1z M107.8,19.5V2.2h-4.7v15.1c0,1.3,0.5,2.4,1.5,3.3
	c0.5,0.5,1.5,1.1,2.6,1.4c0.4,0.1,0.5,0.1,1,0.3l0.8-1.8c-0.5-0.1-0.7-0.3-0.9-0.4C107.8,19.8,107.8,19.6,107.8,19.5L107.8,19.5z
	 M121.3,19.5V2.2h-4.7v15.1c0,1.3,0.5,2.4,1.5,3.3c0.5,0.5,1.5,1.1,2.6,1.4c0.4,0.1,0.5,0.1,1,0.3l0.8-1.8c-0.5-0.1-0.7-0.3-0.9-0.4
	C121.3,19.8,121.3,19.6,121.3,19.5L121.3,19.5z M49.5,12.1v8.8c0,0.2-0.1,0.4-0.3,0.6c-0.3,0.2-0.6,0.3-1,0.3h-10c-2.6,0-4-2-4-3.9
	c0-1.9,1.4-3.9,4-3.9h6.6v-1.9c0-0.6-0.2-1-0.8-1.4c-0.6-0.4-1.1-0.6-1.9-0.6h-5.6l0.8-2h6.8c1.5,0,2.7,0.3,3.8,1.1
	C49.1,10.1,49.5,10.9,49.5,12.1L49.5,12.1z M44.8,19.9V16h-4.5c-1.1,0-1.3,1.1-1.3,2c0,0.8,0.2,1.9,1.3,1.9H44.8L44.8,19.9z
	 M96.3,14c0,0.6-0.2,1.1-0.7,1.4c-0.5,0.4-1,0.5-1.6,0.5h-8.2v2c0,1,1.4,1.9,2.9,1.9l6.4,0l-0.8,2c-2.3,0-5.6,0-5.6,0
	c-4.2,0-7.4-2.6-7.6-5.9l0-1l0-1c0.2-3.3,3.5-5.8,7.6-5.9C92.9,8.1,96.3,10.7,96.3,14L96.3,14z M91.6,11.9c-0.1-1-1.4-1.9-2.9-1.9
	c-1.6,0-2.9,0.9-2.9,1.9v2c1.6,0,4.9,0,5.9,0V11.9L91.6,11.9z M143.3,14c0,0.6-0.2,1.1-0.7,1.4c-0.4,0.4-1,0.5-1.6,0.5h-8.2v2
	c0,1,1.3,1.9,2.9,1.9l6.4,0l-0.8,2c-2.3,0-5.6,0-5.6,0c-4.1,0-7.4-2.6-7.6-5.9l0-1l0-1c0.2-3.3,3.5-5.8,7.6-5.9
	C139.9,8.1,143.3,10.7,143.3,14L143.3,14z M138.6,11.9c0-1-1.4-1.9-2.9-1.9c-1.6,0-2.9,0.9-2.9,1.9v2c1.6,0,4.9,0,5.9,0V11.9
	L138.6,11.9z"/>
<g>
	<path fill="#FFFFFF" d="M7.5,37.2H7.1C7,37.2,7,37.1,7,37v-7.7c0-0.1,0.1-0.2,0.2-0.2h0.4c0.1,0,0.2,0.1,0.2,0.2V37
		C7.7,37.1,7.6,37.2,7.5,37.2z"/>
	<path fill="#FFFFFF" d="M11.4,37.3c-1,0-1.5-0.6-1.5-1.5v-4.1H9.2C9,31.7,9,31.5,9,31.4c0-0.1,0.1-0.2,0.2-0.2h0.7v-1.6
		c0-0.1,0.1-0.2,0.2-0.2h0.4c0.1,0,0.2,0.1,0.2,0.2v1.6h1.8c0.2,0,0.2,0.2,0.2,0.3c0,0.1-0.1,0.2-0.2,0.2h-1.8v4.1
		c0,0.6,0.3,1,0.9,1c0.3,0,0.5-0.1,0.8-0.2c0,0,0.1,0,0.1,0c0.1,0,0.1,0.2,0.1,0.3C12.6,37.3,11.7,37.3,11.4,37.3z"/>
	<path fill="#FFFFFF" d="M14.5,32.4h-0.5l-0.1-3.2h0.8L14.5,32.4z"/>
	<path fill="#FFFFFF" d="M17.6,37.3c-0.4,0-1.1-0.1-1.4-0.3C16,36.9,16,36.9,16,36.7v-0.2c0-0.1,0-0.1,0.1-0.1c0.1,0,0.1,0,0.2,0.1
		c0.4,0.2,0.7,0.3,1.2,0.3c0.6,0,1.2-0.3,1.2-1c0-0.6-0.3-0.8-0.8-1.1l-0.8-0.6c-0.6-0.4-1-0.7-1-1.5c0-1.1,0.8-1.6,1.8-1.6
		c0.3,0,1.4,0.1,1.4,0.6v0.2c0,0.1,0,0.1-0.1,0.1c-0.1,0-0.2-0.1-0.3-0.1c-0.3-0.2-0.7-0.3-1.1-0.3c-0.6,0-1.1,0.3-1.1,0.9
		c0,0.5,0.3,0.7,0.7,0.9l1,0.7c0.6,0.4,1,0.7,1,1.5C19.5,36.8,18.6,37.3,17.6,37.3z"/>
	<path fill="#FFFFFF" d="M29.7,36.1c-0.9,0.9-1.8,1.1-3,1.1h-2.2c-0.1,0-0.2-0.1-0.2-0.2v-7.7c0-0.1,0.1-0.2,0.2-0.2h2.4
		c1.2,0,2.1,0.2,3,1.1c0.7,0.8,1,1.7,1,2.8C30.9,34.2,30.5,35.2,29.7,36.1z M29.3,30.7c-0.7-0.7-1.5-1-2.4-1h-1.8v6.8h1.6
		c1,0,1.8-0.3,2.5-1c0.7-0.7,0.9-1.6,0.9-2.6C30.1,32.1,29.9,31.4,29.3,30.7z"/>
	<path fill="#FFFFFF" d="M32.8,29.9c-0.4,0-0.5-0.2-0.5-0.5c0-0.3,0.2-0.5,0.5-0.5c0.4,0,0.5,0.1,0.5,0.5
		C33.3,29.7,33.2,29.9,32.8,29.9z M33,37.2h-0.4c-0.1,0-0.2-0.1-0.2-0.2v-5.7c0-0.1,0.1-0.2,0.2-0.2H33c0.1,0,0.2,0.1,0.2,0.2V37
		C33.2,37.1,33.1,37.2,33,37.2z"/>
	<path fill="#FFFFFF" d="M38.8,37.2c-0.3,0-0.1-0.3-0.3-0.3c0,0-0.2,0.1-0.2,0.1c-0.5,0.2-0.9,0.3-1.5,0.3c-1,0-2-0.4-2-1.6
		c0-1.1,0.9-1.5,1.8-1.8l1.5-0.5c0.4-0.2,0.4-0.3,0.4-0.7c0-0.8-0.5-1.1-1.3-1.1c-0.7,0-1.2,0.2-1.8,0.5c0,0-0.1,0.1-0.1,0.1
		c-0.2,0-0.1-0.3-0.1-0.4c0-0.4,1.8-0.7,2.1-0.7c0.6,0,1.1,0,1.5,0.5c0.4,0.3,0.4,0.7,0.4,1.2V37C39.2,37.3,38.9,37.2,38.8,37.2z
		 M38.5,33.8l-1.4,0.5c-0.7,0.2-1.6,0.6-1.6,1.4c0,0.7,0.7,1.1,1.3,1.1c0.5,0,1.6-0.1,1.6-0.7V33.8z"/>
	<path fill="#FFFFFF" d="M48.9,37.2c-0.1,0-0.2-0.1-0.2-0.2v-3.7c0-1.2-0.5-1.8-1.7-1.8c-0.6,0-1.4,0.2-1.4,0.9V37
		c0,0.2-0.4,0.2-0.6,0.2c-0.1,0-0.2-0.1-0.2-0.2v-3.6c0-1.2-0.4-1.8-1.7-1.8c-0.6,0-1.4,0.1-1.4,0.8V37c0,0.2-0.4,0.2-0.6,0.2
		c-0.1,0-0.2-0.1-0.2-0.2v-5.7c0-0.2,0.3-0.2,0.5-0.2c0.3,0,0,0.3,0.2,0.3c0.1,0,0.2-0.1,0.3-0.1c0.4-0.2,0.9-0.3,1.4-0.3
		c0.7,0,1,0.1,1.5,0.6c0,0,0.1,0.1,0.2,0.1c0.1,0,0.2,0,0.3-0.1c0.6-0.4,1.1-0.6,1.8-0.6c0.6,0,1.1,0.1,1.6,0.6
		c0.5,0.6,0.6,1.2,0.6,1.9V37C49.5,37.3,49,37.2,48.9,37.2z"/>
	<path fill="#FFFFFF" d="M53.6,37.4c-2,0-2.7-1.4-2.7-3.1c0-1.8,0.7-3.2,2.7-3.2c1.9,0,2.7,1.3,2.7,3.1C56.3,36,55.6,37.4,53.6,37.4
		z M53.6,31.6c-1.5,0-2,1.3-2,2.6c0,1.3,0.5,2.7,2,2.7c1.5,0,2-1.3,2-2.6C55.6,33,55.2,31.6,53.6,31.6z"/>
	<path fill="#FFFFFF" d="M62.1,37.2c-0.1,0-0.2-0.1-0.2-0.2v-3.7c0-1.1-0.5-1.7-1.6-1.7c-0.5,0-1.6,0.1-1.6,0.8V37
		c0,0.2-0.4,0.2-0.6,0.2C58,37.2,58,37.1,58,37v-5.7c0-0.2,0.3-0.2,0.5-0.2c0.3,0,0,0.3,0.2,0.3c0.1,0,0.2,0,0.2-0.1
		c0.5-0.2,1-0.3,1.5-0.3c0.6,0,1.2,0.1,1.7,0.5c0.5,0.5,0.6,1.2,0.6,1.9V37C62.6,37.3,62.2,37.2,62.1,37.2z"/>
	<path fill="#FFFFFF" d="M68.8,37.2c-0.3,0,0-0.3-0.2-0.3c-0.1,0-0.1,0-0.2,0.1c-0.5,0.2-0.9,0.3-1.5,0.3c-1.8,0-2.8-1.4-2.8-3
		c0-1.7,1-3.2,2.9-3.2c0.5,0,0.9,0.1,1.4,0.3c0,0,0.1,0,0.1,0c0.1,0,0.1,0,0.1-0.1v-2.6c0-0.2,0.4-0.2,0.6-0.2
		c0.1,0,0.2,0.1,0.2,0.2V37C69.3,37.3,69,37.2,68.8,37.2z M68.5,32.4c0-0.6-1-0.8-1.4-0.8c-1.6,0-2.3,1.1-2.3,2.6
		c0,1.4,0.7,2.6,2.3,2.6c0.5,0,1.4-0.1,1.4-0.8V32.4z"/>
	<path fill="#FFFFFF" d="M72.3,37.4c-0.5,0-0.7-0.2-0.7-0.6c0-0.4,0.2-0.6,0.7-0.6c0.4,0,0.7,0.2,0.7,0.6
		C73,37.2,72.7,37.4,72.3,37.4z"/>
	<path fill="#FFFFFF" d="M78.5,37.2h-0.4C78,37.2,78,37.1,78,37v-7.7c0-0.1,0.1-0.2,0.2-0.2h0.4c0.1,0,0.2,0.1,0.2,0.2V37
		C78.7,37.1,78.6,37.2,78.5,37.2z"/>
	<path fill="#FFFFFF" d="M82.4,37.3c-1,0-1.5-0.6-1.5-1.5v-4.1h-0.7c-0.2,0-0.2-0.2-0.2-0.3c0-0.1,0.1-0.2,0.2-0.2h0.7v-1.6
		c0-0.1,0.1-0.2,0.2-0.2h0.4c0.1,0,0.2,0.1,0.2,0.2v1.6h1.8c0.2,0,0.2,0.2,0.2,0.3c0,0.1-0.1,0.2-0.2,0.2h-1.8v4.1
		c0,0.6,0.3,1,0.9,1c0.3,0,0.5-0.1,0.8-0.2c0,0,0.1,0,0.1,0c0.1,0,0.1,0.2,0.1,0.3C83.6,37.3,82.7,37.3,82.4,37.3z"/>
	<path fill="#FFFFFF" d="M85.5,32.4h-0.5l-0.1-3.2h0.8L85.5,32.4z"/>
	<path fill="#FFFFFF" d="M88.6,37.3c-0.4,0-1.1-0.1-1.4-0.3C87,36.9,87,36.9,87,36.7v-0.2c0-0.1,0-0.1,0.1-0.1c0.1,0,0.1,0,0.2,0.1
		c0.4,0.2,0.7,0.3,1.2,0.3c0.6,0,1.2-0.3,1.2-1c0-0.6-0.3-0.8-0.8-1.1l-0.8-0.6c-0.6-0.4-1-0.7-1-1.5c0-1.1,0.8-1.6,1.8-1.6
		c0.3,0,1.4,0.1,1.4,0.6v0.2c0,0.1,0,0.1-0.1,0.1C90.2,32,90,32,90,31.9c-0.3-0.2-0.7-0.3-1.1-0.3c-0.6,0-1.1,0.3-1.1,0.9
		c0,0.5,0.3,0.7,0.7,0.9l1,0.7c0.6,0.4,1,0.7,1,1.5C90.5,36.8,89.6,37.3,88.6,37.3z"/>
	<path fill="#FFFFFF" d="M100.7,36.1c-0.9,0.9-1.8,1.1-3,1.1h-2.2c-0.1,0-0.2-0.1-0.2-0.2v-7.7c0-0.1,0.1-0.2,0.2-0.2h2.4
		c1.2,0,2.1,0.2,3,1.1c0.7,0.8,1,1.7,1,2.8C101.9,34.2,101.5,35.2,100.7,36.1z M100.3,30.7c-0.7-0.7-1.5-1-2.4-1h-1.8v6.8h1.6
		c1,0,1.8-0.3,2.5-1c0.7-0.7,0.9-1.6,0.9-2.6C101.1,32.1,100.9,31.4,100.3,30.7z"/>
	<path fill="#FFFFFF" d="M104.3,29.4c0-0.4-0.1-0.5-0.5-0.5c-0.3,0-0.5,0.1-0.5,0.5c0,0.4,0.1,0.5,0.5,0.5
		C104.2,29.9,104.3,29.7,104.3,29.4z M104.2,37v-5.7c0-0.1-0.1-0.2-0.2-0.2h-0.4c-0.1,0-0.2,0.1-0.2,0.2V37c0,0.1,0.1,0.2,0.2,0.2
		h0.4C104.1,37.2,104.2,37.1,104.2,37z"/>
	<path fill="#FFFFFF" d="M108.6,31.7h-1.3V37c0,0.1-0.1,0.2-0.2,0.2h-0.4c-0.1,0-0.2-0.1-0.2-0.2v-5.3h-0.8c-0.2,0-0.2-0.2-0.2-0.3
		c0-0.1,0.1-0.2,0.2-0.2h0.8c0-1.2-0.2-2.5,1.5-2.5c0.2,0,0.8,0,0.8,0.3v0.2c0,0.1,0,0.1-0.1,0.1c-0.1,0-0.4-0.1-0.6-0.1
		c-0.7,0-0.8,0.3-0.8,0.9v1.1h1.3c0.2,0,0.2,0.2,0.2,0.3C108.8,31.6,108.7,31.7,108.6,31.7z"/>
	<path fill="#FFFFFF" d="M112.7,31.7h-1.3V37c0,0.1-0.1,0.2-0.2,0.2h-0.4c-0.1,0-0.2-0.1-0.2-0.2v-5.3h-0.8c-0.2,0-0.2-0.2-0.2-0.3
		c0-0.1,0.1-0.2,0.2-0.2h0.8c0-1.2-0.2-2.5,1.5-2.5c0.2,0,0.8,0,0.8,0.3v0.2c0,0.1,0,0.1-0.1,0.1c-0.1,0-0.4-0.1-0.6-0.1
		c-0.7,0-0.8,0.3-0.8,0.9v1.1h1.3c0.2,0,0.2,0.2,0.2,0.3C112.8,31.6,112.8,31.7,112.7,31.7z"/>
	<path fill="#FFFFFF" d="M118.4,34h-4.3c0,0.7,0,1.3,0.4,1.9c0.4,0.6,1.1,0.8,1.8,0.8c0.5,0,1-0.1,1.5-0.4c0,0,0.2-0.1,0.2-0.1
		c0.1,0,0.1,0.3,0.1,0.4c0,0.5-1.5,0.7-1.8,0.7c-1.9,0-3-1.3-3-3.1c0-1.6,0.9-3.1,2.7-3.1c1.4,0,2.5,1.1,2.5,2.5v0.3
		C118.6,34,118.5,34,118.4,34z M116,31.6c-1.1,0-1.8,0.9-1.9,1.9h3.7C117.8,32.5,117.2,31.6,116,31.6z"/>
	<path fill="#FFFFFF" d="M122.7,31.9c-0.3,0-0.7-0.1-1-0.1c-0.6,0-0.9,0.2-0.9,0.9V37c0,0.1-0.1,0.2-0.2,0.2h-0.4
		c-0.1,0-0.2-0.1-0.2-0.2v-5.7c0-0.1,0.1-0.2,0.2-0.2h0.3c0.3,0,0,0.4,0.3,0.4c0,0,0.1,0,0.1,0c0.5-0.3,1.2-0.4,1.8-0.4
		c0.3,0,0.3,0.3,0.3,0.5C122.9,31.8,122.8,31.9,122.7,31.9z"/>
	<path fill="#FFFFFF" d="M128.5,34h-4.3c0,0.7,0,1.3,0.4,1.9c0.4,0.6,1.1,0.8,1.8,0.8c0.5,0,1-0.1,1.5-0.4c0,0,0.2-0.1,0.2-0.1
		c0.1,0,0.1,0.3,0.1,0.4c0,0.5-1.5,0.7-1.8,0.7c-1.9,0-3-1.3-3-3.1c0-1.6,0.9-3.1,2.7-3.1c1.4,0,2.5,1.1,2.5,2.5v0.3
		C128.7,34,128.6,34,128.5,34z M126.2,31.6c-1.1,0-1.8,0.9-1.9,1.9h3.7C127.9,32.5,127.3,31.6,126.2,31.6z"/>
	<path fill="#FFFFFF" d="M134.2,37.2c-0.1,0-0.2-0.1-0.2-0.2v-3.7c0-1.1-0.5-1.7-1.6-1.7c-0.5,0-1.6,0.1-1.6,0.8V37
		c0,0.2-0.4,0.2-0.6,0.2c-0.1,0-0.2-0.1-0.2-0.2v-5.7c0-0.2,0.3-0.2,0.5-0.2c0.3,0,0,0.3,0.2,0.3c0.1,0,0.2,0,0.2-0.1
		c0.5-0.2,1-0.3,1.5-0.3c0.6,0,1.2,0.1,1.7,0.5c0.5,0.5,0.6,1.2,0.6,1.9V37C134.8,37.3,134.4,37.2,134.2,37.2z"/>
	<path fill="#FFFFFF" d="M138.4,37.3c-1,0-1.5-0.6-1.5-1.5v-4.1h-0.7c-0.2,0-0.2-0.2-0.2-0.3c0-0.1,0.1-0.2,0.2-0.2h0.7v-1.6
		c0-0.1,0.1-0.2,0.2-0.2h0.4c0.1,0,0.2,0.1,0.2,0.2v1.6h1.8c0.2,0,0.2,0.2,0.2,0.3c0,0.1-0.1,0.2-0.2,0.2h-1.8v4.1
		c0,0.6,0.3,1,0.9,1c0.3,0,0.5-0.1,0.8-0.2c0,0,0.1,0,0.1,0c0.1,0,0.1,0.2,0.1,0.3C139.6,37.3,138.7,37.3,138.4,37.3z"/>
	<path fill="#FFFFFF" d="M142,37.4c-0.5,0-0.7-0.2-0.7-0.6c0-0.4,0.2-0.6,0.7-0.6c0.4,0,0.7,0.2,0.7,0.6
		C142.7,37.2,142.5,37.4,142,37.4z"/>
</g>
</svg>
